<svg width="20" height="20" viewBox="0 0 20 20" fill="none" xmlns="http://www.w3.org/2000/svg">
    <path d="M11.567 3.785c.539-.651.92-1.538.92-2.437 0-.123-.01-.247-.033-.348-.876.034-1.931.584-2.56 1.325-.495.562-.955 1.46-.955 2.359 0 .134.022.27.034.314.056.011.146.023.236.023.786 0 1.774-.528 2.358-1.236zm.618 1.426c-1.314 0-2.381.798-3.066.798-.73 0-1.685-.753-2.83-.753-2.168 0-4.37 1.797-4.37 5.178 0 2.11.81 4.335 1.82 5.772.865 1.213 1.617 2.213 2.707 2.213 1.078 0 1.55-.72 2.886-.72 1.359 0 1.662.697 2.853.697 1.179 0 1.965-1.078 2.706-2.145.831-1.224 1.18-2.415 1.19-2.47-.067-.023-2.324-.944-2.324-3.527 0-2.235 1.774-3.234 1.875-3.313-1.168-1.685-2.953-1.73-3.447-1.73z" fill="#fff"/>
</svg>
