<svg width="360" height="280" viewBox="0 0 360 280" fill="none" xmlns="http://www.w3.org/2000/svg">
    <g clip-path="url(#a)">
        <g clip-path="url(#b)">
            <path d="M195.29 214.53c11.307 3.517 14.661 1.546 21.672-4.496 11.307-9.766 12.438-28.629 21.568-39.95 7.689-9.53 21.823-14.507 29.39-24.198 5.917-7.541 10.553-15.657 10.968-25.141.848-19.362-10.365-38.422-29.917-44.455-16.226-5.015-31.095 3.025-40.405 16.317-7.236 10.313-4.089 23.68.594 34.388 12.947 29.562-22.53 47.472-22.681 47.52-4.711 2.375-7.877 15.384-8.254 19.852-.867 10.266 7.048 17.053 17.065 20.163z" fill="#FCCCA3"/>
            <path fill-rule="evenodd" clip-rule="evenodd" d="M258.258 80.468c-3.607 2.498-7.407 4.668-11.134 6.797l-.094.053a110.556 110.556 0 0 0-13.889 8.908c-10.29 8.136-19.92 18.495-21.983 31.447-.099.604-.631.847-1.348.899a38.688 38.688 0 0 0-.65-1.577c-1.577-3.607-2.98-7.515-3.871-11.506a59.724 59.724 0 0 1 19.475-28.039 114.239 114.239 0 0 1 14.681-9.426l.082-.047c1.63-.93 3.237-1.848 4.808-2.779 1.53.248 3.077.61 4.636 1.091a41.021 41.021 0 0 1 9.287 4.178z" fill="#7A5B45"/>
            <path d="M163.752 175.674a11.285 11.285 0 0 0-3.6-.217c-7.133.679-13.559 5.467-17.62 11.651-2.337 3.545-3.355 7.768-4.203 11.953-.594 2.941-.311 7.287-2.148 9.757-2.186 2.922-6.888 1.809-9.988 2.413a11.761 11.761 0 0 0-8.481 7.145c-4.099 10.219 15.256 9.021 20.042 8.861 5.164-.17 10.365 0 15.482-.132 4.815-.113 9.997-.16 14.586-1.885 5.079-1.885 6.031-9.21 6.737-14.187a77.381 77.381 0 0 0 .113-19.193c-.753-7.173-4.325-14.677-10.92-16.166z" fill="#FCCCA3"/>
            <path fill-rule="evenodd" clip-rule="evenodd" d="M266.714 87.322c-8.576 2.963-17.118 6.34-25.122 10.875-13.276 7.523-23.095 17.43-28.419 28.629a3.067 3.067 0 0 0 2.243 4.336c.592.098 1.508.987 2.403 1.857 1.17 1.136 2.306 2.24 2.647 1.508 6.031-12.735 17.423-21.115 25.904-25.932 8.554-4.849 17.924-8.356 27.297-11.495a43.577 43.577 0 0 0-6.953-9.778zM276.51 103.791a98.852 98.852 0 0 0-26.023 10.658c-12.15 7.163-22.497 16.811-32.496 26.134l-.36.336a3.067 3.067 0 0 0-.151 4.327c.297.318-1.847 2.487-3.747 4.409-1.593 1.612-3.015 3.05-2.68 3.075.21.015.043 1.031-.181 2.394-.661 4.03-1.822 11.096 4.761 4.328 9.441-9.663 30.595-25.612 42.308-32.522a92.69 92.69 0 0 1 20.984-9.036 47.03 47.03 0 0 0-2.415-14.103z" fill="#7A5B45"/>
            <path d="M231.322 130.162c-.066-9.492-3.919-18.325-8.998-26.394-9.121-14.423-20.042-33.069-41.884-35.303-23.463-2.394-44.193 12.934-52.541 33.747-3.769 9.323-9.95 16.129-10.195 26.904-.358 15.884 8.678 23.293 20.937 26.743-.434 1.584-.801 2.951-1.084 3.94-4.636 16.026-11.769 36.434-2.563 52.073 9.31 15.818 39.114 16.11 54.341 14.696a55.145 55.145 0 0 0 15.161-3.488c27.863-11.02 19.571-44.748 14.134-63.46-.283-.942-2.111-3.827-2.393-5.165 7.604-2.942 12.626-8.579 14.633-19.193.312-1.682.463-3.389.452-5.1z" fill="#D2B491" style="mix-blend-mode:multiply" opacity=".25"/>
            <path d="M201.99 220.761a54.53 54.53 0 0 1-14.916 3.771c-15.076 1.735-44.532 2.121-54.096-13.329-9.423-15.281-2.827-35.614 1.366-51.63 1.508-5.731 5.296-24.377 13.004-24.377h54.529c8.169 0 11.072 16.025 12.664 22.37 5.899 23.594 14.765 51.657-12.551 63.195z" fill="#FCCCA3"/>
            <path d="M182.692 203.935c-2 .873-4.118 1.445-6.285 1.697-6.332.773-18.752.943-22.775-5.967-4.023-6.91-1.206-15.931.575-23.086.631-2.564 2.233-10.906 5.474-10.906h22.954c3.449 0 4.711 7.173 5.333 10.011 2.488 10.539 6.2 23.086-5.276 28.251z" fill="#fff"/>
            <path d="M207.747 184.016a7.24 7.24 0 0 0-2.78-.188c-7.133.65-14.36 1.781-18.393 7.456-2.327 3.262-3.336 7.136-4.165 10.973-.593 2.696-.292 6.683-2.129 8.946-2.177 2.686-6.879 1.687-9.979 2.243a11.54 11.54 0 0 0-8.424 6.599c-4.07 9.379 15.274 8.229 20.052 8.069 5.163-.17 10.365-.047 15.481-.17 4.806-.122 9.988-.179 14.568-1.781 5.069-1.773 6.002-8.484 6.699-13.028a65.083 65.083 0 0 0 .057-17.59c-.801-6.58-4.391-10.19-10.987-11.529z" fill="#DCBF9D" style="mix-blend-mode:multiply" opacity=".45"/>
            <path d="M210.281 180.802a12.185 12.185 0 0 0-3.6-.198c-7.133.632-13.559 5.091-17.62 10.86-2.337 3.309-3.355 7.239-4.203 11.142-.593 2.743-.31 6.806-2.148 9.097-2.186 2.724-6.888 1.696-9.988 2.253a11.572 11.572 0 0 0-8.48 6.664c-4.099 9.531 15.255 8.409 20.042 8.267 5.163-.16 10.365 0 15.481-.132 4.815-.103 9.998-.141 14.586-1.762 5.079-1.791 6.031-8.588 6.738-13.198a67.42 67.42 0 0 0 .113-17.91c-.754-6.693-4.325-13.697-10.921-15.083z" fill="#FCCCA3"/>
            <path d="M129.33 83.18c1.819 3.771 6.068 5.553 9.498 3.913 3.43-1.64 4.712-6.052 2.912-9.86-1.8-3.809-6.492-6.42-9.922-4.78-3.43 1.64-4.306 6.929-2.488 10.728z" fill="#F9CCA6"/>
            <path d="M228.543 128.88c-.283-9.426-5.475-17.392-9.498-25.895-8.65-18.325-22.935-28.713-44.598-30.429-23.264-1.885-43.533 8.654-51.325 29.458-3.487 9.314-9.479 16.186-9.479 26.866 0 33.474 41.177 28.025 65.827 28.025 19.994 0 44.701 1.405 48.724-22.916.282-1.687.398-3.398.349-5.109z" fill="#FCCCA3"/>
            <path d="M228.543 128.88c-.283-9.426-5.475-17.392-9.498-25.895-8.65-18.325-22.935-28.713-44.598-30.429-23.264-1.885-43.533 8.654-51.325 29.458-3.487 9.314-9.479 16.186-9.479 26.866 0 33.474 41.177 28.025 65.827 28.025 19.994 0 44.701 1.405 48.724-22.916.282-1.687.398-3.398.349-5.109z" fill="#FCCCA3"/>
            <path opacity=".2" fill-rule="evenodd" clip-rule="evenodd" d="M223.131 111.178c2.795 5.645 5.221 11.341 5.412 17.703a26.413 26.413 0 0 1-.349 5.109c-3.817 23.072-26.248 22.993-45.612 22.924-1.048-.004-2.086-.008-3.112-.008-2.897 0-6.022.075-9.281.154-24.478.589-56.546 1.361-56.546-28.179 0-6.904 2.504-12.217 5.216-17.626a32.34 32.34 0 0 1 11.17-1.981 31.57 31.57 0 0 1 20.729 7.645c.813.791 1.71 1.49 2.677 2.083 2.213 1.18 5.152.274 7.882-.567 1.35-.416 2.648-.817 3.783-.941a49.478 49.478 0 0 1 17.809 1.282c4.928 1.282 5.964.499 9.479-2.715a23.975 23.975 0 0 1 6.002-3.705 32.289 32.289 0 0 1 13.795-3.082h.019c3.735.001 7.431.648 10.927 1.904z" fill="#fff"/>
            <path d="M170.613 133.461c-6.879-.282-5.07-7.258-5.07-8.559l5.07-2.451 6.256 2.658c-.009 1.282.613 8.645-6.256 8.352z" fill="#F16B6B"/>
            <path d="M170.81 126.788c-3.92-.113-2.883-2.63-2.883-3.101l2.883-.886 3.562.942c.009.491.358 3.149-3.562 3.045z" fill="#fff"/>
            <path d="M168.236 72.434V96.14c0 3.677 5.72 3.686 5.72 0V72.434c0-3.677-5.72-3.686-5.72 0zM159.304 74.31a51.457 51.457 0 0 0-.311 16.26c.49 3.63 6.002 2.084 5.512-1.527a42.583 42.583 0 0 1 .311-13.197c.641-3.6-4.862-5.147-5.512-1.517v-.02zM177.339 75.827c.789 4.356.893 8.808.311 13.197-.49 3.601 5.022 5.166 5.512 1.527a51.164 51.164 0 0 0-.311-16.26c-.641-3.62-6.153-2.084-5.512 1.517v.019z" fill="#7A5B45"/>
            <path d="M133.411 141.559c8.108 0 14.681-5.913 14.681-13.207 0-7.294-6.573-13.206-14.681-13.206-8.108 0-14.681 5.912-14.681 13.206s6.573 13.207 14.681 13.207zM208.792 141.559c8.108 0 14.68-5.913 14.68-13.207 0-7.294-6.572-13.206-14.68-13.206s-14.681 5.912-14.681 13.206 6.573 13.207 14.681 13.207z" fill="#FFA192"/>
            <path d="M112.907 100.214a1.272 1.272 0 0 1-.839-.301 55.323 55.323 0 0 1-8.423-8.767 1.3 1.3 0 0 1-.259-.97 1.31 1.31 0 0 1 1.473-1.126c.345.046.657.227.868.503a52.962 52.962 0 0 0 8.019 8.352 1.303 1.303 0 0 1-.082 2.079 1.304 1.304 0 0 1-.757.23zM107.772 108.481c-.226 0-.448-.062-.641-.179l-15.472-8.795a1.31 1.31 0 0 1 1.291-2.272l15.472 8.795a1.315 1.315 0 0 1 .621 1.477 1.307 1.307 0 0 1-1.271.974zM274.406 76.07c-.259-.001-.512-.08-.726-.227a1.304 1.304 0 0 1-.562-1.338c.033-.169.099-.33.195-.472a62.292 62.292 0 0 1 10.996-12.547 1.31 1.31 0 0 1 1.724 1.97 59.57 59.57 0 0 0-10.534 12.02 1.299 1.299 0 0 1-1.093.593zM280.982 83.498a1.313 1.313 0 0 1-1.247-.91 1.31 1.31 0 0 1 .484-1.466l10.026-7.22a1.307 1.307 0 0 1 1.904.238 1.312 1.312 0 0 1-.378 1.883l-10.026 7.22a1.299 1.299 0 0 1-.763.255zM266.311 73.034h-.169a1.293 1.293 0 0 1-.87-.495 1.306 1.306 0 0 1-.261-.966l1.197-9.427a1.311 1.311 0 0 1 2.601.33l-1.207 9.474a1.296 1.296 0 0 1-1.291 1.084z" fill="#DC9B68"/>
            <path d="M185.236 114.514a1.879 1.879 0 0 1-1.149-.386 4.977 4.977 0 0 0-1.696-.811 5.481 5.481 0 0 0-2.026.085 1.82 1.82 0 0 1-1.932-1.094 1.762 1.762 0 0 1 .622-2.187l.245-.16c.225-.151.478-.253.745-.302a8.875 8.875 0 0 1 3.118 0 8.673 8.673 0 0 1 3.251 1.518 1.889 1.889 0 0 1 .629 2.098 1.889 1.889 0 0 1-1.778 1.277l-.029-.038zM156.95 114.514a1.88 1.88 0 0 0 1.14-.386 4.959 4.959 0 0 1 1.696-.811 5.481 5.481 0 0 1 2.026.085 1.811 1.811 0 0 0 1.931-1.094 1.762 1.762 0 0 0-.631-2.186l-.245-.161a1.89 1.89 0 0 0-.735-.301 8.833 8.833 0 0 0-3.119 0 8.478 8.478 0 0 0-3.251 1.517 1.882 1.882 0 0 0 .057 3.021 1.88 1.88 0 0 0 1.093.354l.038-.038zM171.102 120.434c2.014 0 3.646-.937 3.646-2.092 0-1.156-1.632-2.093-3.646-2.093-2.014 0-3.647.937-3.647 2.093 0 1.155 1.633 2.092 3.647 2.092z" fill="#7A5B45"/>
            <path d="M176.849 128.202a5.664 5.664 0 0 1-2.667 5.278 5.43 5.43 0 0 1-3.364.943c-4.711-.151-5.05-3.148-5.192-4.119-.141-.971-.245-2.753-.311-4.025a2.483 2.483 0 0 1 1.885-2.527 15.906 15.906 0 0 1 3.628-.349c3.411 0 4.504.123 5.286 1.264.65.98.735 3.535.735 3.535z" stroke="#84644E" stroke-width="2" stroke-miterlimit="10"/>
            <path d="M212.477 85.358c-2.035 4.044-6.595 5.835-10.289 3.997-3.694-1.839-4.947-6.599-2.912-10.653 2.036-4.053 7.114-6.758 10.761-4.92 3.647 1.838 4.485 7.532 2.44 11.576z" fill="#F9CCA6"/>
            <path d="M171.912 155.388c5.983 0 10.883-.509 10.873-5.514v-6.08a7.784 7.784 0 0 0-3.373-5.93 13.486 13.486 0 0 0-3.025-1.753c-1.168-.481-2.346-.65-3.298-1.574a4.99 4.99 0 0 0-.744-.679c-.791-.528-1.366.085-1.988.537-2.45 1.791-5.399 2.828-7.472 5.091-2.592 2.875-1.885 6.872-1.885 10.454.019 4.996 4.9 5.467 10.912 5.448z" fill="#DC9B68"/>
            <path opacity=".45" d="M161.001 149.016c-.499.321-.546.943-.575 1.508-.132 3.837 4.919 7.136 11.308 7.363 6.388.226 11.655-2.696 11.787-6.533a1.823 1.823 0 0 0-.414-1.471 3.99 3.99 0 0 0-1.555-.641 34.434 34.434 0 0 0-11.543-1.564 58.082 58.082 0 0 0-6.256.659c-.847.099-1.68.286-2.488.557a1.171 1.171 0 0 0-.264.122z" fill="#B68663"/>
            <path d="M170.914 158.706c.245 1.433.348 3.045.348 3.045s.321 2.356 2.243 1.14c1.329-.839.594-2.988 0-4.232 5.654-.481 9.941-3.394 9.932-6.91a1.822 1.822 0 0 0-.481-1.452 3.838 3.838 0 0 0-1.574-.584 34.377 34.377 0 0 0-11.599-1.112 57.784 57.784 0 0 0-6.219.942c-.843.13-1.671.348-2.469.651-.085.036-.167.08-.245.132a1.697 1.697 0 0 0-.508 1.527c.018 3.601 4.664 6.589 10.572 6.853z" fill="#784330"/>
            <path opacity=".15" d="M164.109 144.943s1.545-5.279 5.484-6.429c0 0-6.907-.17-5.484 6.429z" fill="#fff"/>
            <path d="M209.414 155.351s-28.842-15.677-31.556-7.419c-2.714 8.258 21.135 24.877 21.135 24.877s12.428-.038 10.421-17.458zM135.494 155.03s25.441-16.025 28.795-8.144c3.355 7.88-18.911 28.524-18.911 28.524s-10.28-3.393-9.884-20.38z" fill="#FCCCA3"/>
            <path d="M215.266 26.13c-.5-9.426-7.227-17.127-17.376-17.59a21.154 21.154 0 0 0-9.083 1.575 20.577 20.577 0 0 0-35.439 0 21.106 21.106 0 0 0-9.083-1.555c-10.149.461-16.867 8.125-17.376 17.599-.518 9.822 5.654 18.08 15.698 19.343v26.941a3.397 3.397 0 0 0 2.356 3.233c7.435 2.376 30.718-5.721 52.456.105 1.348.367 2.158-1.763 2.158-3.158v-27.14c10.045-1.263 16.264-9.52 15.689-19.352z" fill="#F2F0F0"/>
            <path d="M142.607 79.9v-7.73a3.39 3.39 0 0 1 2.149-3.168c21.323-8.53 45.021-2.262 52.456.104a3.398 3.398 0 0 1 2.356 3.234v7.758a2.774 2.774 0 0 0-.66-.293c-7.915-2.526-33.158-9.19-55.867-.122l-.434.217z" fill="#E57373"/>
            <path d="M142.607 76.43v-4.26a3.39 3.39 0 0 1 2.149-3.168c21.323-8.53 45.021-2.262 52.456.104a3.398 3.398 0 0 1 2.356 3.234v4.289a3.224 3.224 0 0 0-.66-.293c-7.915-2.535-33.158-9.19-55.867-.122l-.434.217z" fill="#EF5350"/>
            <path d="M144.286 18.721a21.108 21.108 0 0 1 9.083 1.584 20.576 20.576 0 0 1 35.439 0 21.305 21.305 0 0 1 9.083-1.584 17.692 17.692 0 0 1 16.763 13.621c.521-2.026.728-4.121.613-6.211-.5-9.427-7.227-17.128-17.376-17.6-3.107-.141-6.207.4-9.083 1.584a20.577 20.577 0 0 0-35.439 0 21.106 21.106 0 0 0-9.083-1.555c-10.149.47-16.867 8.135-17.376 17.599-.112 2.09.098 4.186.622 6.212a17.685 17.685 0 0 1 16.754-13.65z" fill="#EAE8E8"/>
            <path d="M156.064 38.433h-.029c-.65 0-1.178.527-1.178 1.178v19.324c0 .651.528 1.179 1.178 1.179h.029c.65 0 1.177-.528 1.177-1.179V39.611c0-.65-.527-1.178-1.177-1.178zM172.345 36.698h-.028c-.651 0-1.178.528-1.178 1.179V57.2c0 .65.527 1.178 1.178 1.178h.028c.65 0 1.178-.527 1.178-1.178V37.877c0-.651-.528-1.179-1.178-1.179zM186.149 38.433h-.028c-.65 0-1.178.527-1.178 1.178v19.324c0 .651.528 1.179 1.178 1.179h.028c.651 0 1.178-.528 1.178-1.179V39.611c0-.65-.527-1.178-1.178-1.178z" fill="#D4D5D6"/>
        </g>
        <path fill="#fff" d="M0 180h360v230H0z"/>
        <path fill="url(#c)" fill-opacity=".2" d="M0 180h360v230H0z"/>
    </g>
    <defs>
        <clipPath id="a">
            <path fill="#fff" d="M0 0h360v280H0z"/>
        </clipPath>
        <clipPath id="b">
            <path fill="#fff" transform="translate(91)" d="M0 0h205v229H0z"/>
        </clipPath>
        <linearGradient id="c" x1="180" y1="180" x2="180" y2="232" gradientUnits="userSpaceOnUse">
            <stop stop-color="#FF7F22"/>
            <stop offset="1" stop-color="#fff" stop-opacity="0"/>
        </linearGradient>
    </defs>
</svg>
